<?xml version="1.0" encoding="UTF-8" standalone="no"?>
<svg
   width="135"
   height="25"
   viewBox="0 0 135 25"
   version="1.1"
   id="svg7"
   sodipodi:docname="openapi-vue.svg"
   inkscape:version="1.4.2 (ebf0e940, 2025-05-08)"
   xmlns:inkscape="http://www.inkscape.org/namespaces/inkscape"
   xmlns:sodipodi="http://sodipodi.sourceforge.net/DTD/sodipodi-0.dtd"
   xmlns="http://www.w3.org/2000/svg"
   xmlns:svg="http://www.w3.org/2000/svg">
  <defs
     id="defs7" />
  <sodipodi:namedview
     id="namedview7"
     pagecolor="#ffffff"
     bordercolor="#000000"
     borderopacity="0.25"
     inkscape:showpageshadow="2"
     inkscape:pageopacity="0.0"
     inkscape:pagecheckerboard="0"
     inkscape:deskcolor="#d1d1d1"
     inkscape:zoom="6.162963"
     inkscape:cx="67.5"
     inkscape:cy="12.49399"
     inkscape:window-width="3192"
     inkscape:window-height="1707"
     inkscape:window-x="1924"
     inkscape:window-y="29"
     inkscape:window-maximized="0"
     inkscape:current-layer="vue-part" />
  <title
     id="title1">OpenAPI for Vue.js Logo</title>
  <g
     fill="#42b883"
     id="g7">
    <path
       d="m8.62401 20.308c-1.55467 0-2.91133-.352-4.07-1.056s-2.05333-1.672-2.684-2.904-.945999-2.64-.945999-4.224c0-1.188.175999-2.27333.527999-3.256.36667-.99733.88733-1.86267 1.562-2.596.67467-.73334 1.48133-1.298 2.42-1.694.95333-.41067 2.01667-.616 3.19-.616 1.56929 0 2.93329.352 4.09199 1.056s2.0533 1.672 2.684 2.904c.6307 1.21733.946 2.618.946 4.202 0 1.188-.1833 2.2807-.55 3.278-.352.9973-.8653 1.8627-1.54 2.596s-1.4887 1.3053-2.442 1.716c-.9387.396-2.00199.594-3.18999.594zm0-2.09c.93867 0 1.73799-.1613 2.39799-.484s1.1953-.77 1.606-1.342.7113-1.2247.902-1.958c.2053-.7333.308-1.5033.308-2.31 0-1.0853-.176-2.09-.528-3.014s-.9093-1.66467-1.672-2.222c-.7627-.55734-1.76732-.836-3.01399-.836-.90933 0-1.70133.16133-2.376.484-.66.32266-1.19533.77-1.606 1.342-.41067.55733-.71867 1.20266-.924 1.936-.19067.7333-.286 1.5033-.286 2.31 0 1.0853.176 2.09.528 3.014s.90933 1.672 1.672 2.244c.76267.5573 1.76.836 2.992.836z"
       id="path1" />
    <path
       d="m19.6934 23.894h-2.156v-15.114h2.156zm.044-5.28h-.572v-8.514h.572c.2054-.27867.4621-.54267.7701-.792s.6819-.45467 1.1219-.616c.4547-.16134.9754-.242 1.5621-.242.9533 0 1.804.242 2.552.726.7626.46933 1.364 1.1513 1.804 2.046.4546.88.682 1.936.682 3.168 0 .924-.132 1.7527-.396 2.486-.2494.7333-.6014 1.3567-1.056 1.87-.4547.4987-.9901.8873-1.6061 1.166-.6013.264-1.2613.396-1.9799.396-.5867 0-1.1074-.0807-1.5621-.242-.44-.1613-.8139-.3667-1.1219-.616-.308-.264-.5647-.5427-.7701-.836zm3.1021-8.36c-.484 0-.9241.0953-1.3201.286-.3813.176-.7113.4473-.99.814-.264.3667-.4693.8067-.6159 1.32-.132.4987-.198 1.0707-.198 1.716 0 .836.1246 1.5693.374 2.2.2493.616.6086 1.0927 1.0779 1.43.4694.3373 1.0267.506 1.6721.506.5133 0 .9679-.11 1.3639-.33.396-.2347.7187-.5427.968-.924.264-.3813.462-.8213.594-1.32s.1981-1.0193.1981-1.562c0-.7333-.1174-1.4153-.352-2.046-.2201-.6307-.5647-1.1367-1.0341-1.518-.4546-.3813-1.0339-.572-1.7379-.572z"
       id="path2" />
    <path
       d="m34.6399 20.33c-1.188 0-2.2-.2567-3.036-.77-.8214-.5133-1.4447-1.2173-1.87-2.112-.4254-.9093-.638-1.936-.638-3.08 0-.88.1246-1.6793.374-2.398.264-.7333.6306-1.364 1.1-1.892.484-.528 1.0633-.93133 1.738-1.21.6893-.29333 1.4666-.44 2.332-.44 1.144 0 2.1046.23466 2.882.704.792.46933 1.3933 1.1367 1.804 2.002.4253.8507.638 1.8553.638 3.014v.462c0 .1467-.0074.264-.022.352h-9.768v-1.694h7.524c0-.44-.0734-.8433-.22-1.21-.1467-.3813-.3594-.7113-.638-.99-.264-.2787-.5867-.4913-.968-.638-.3814-.1613-.814-.242-1.298-.242-.6307 0-1.1954.1393-1.694.418-.484.2787-.8654.6673-1.144 1.166-.2787.4987-.418 1.0853-.418 1.76v.704.616c0 .6453.1246 1.2467.374 1.804.2493.5573.6233 1.0193 1.122 1.386.4986.352 1.122.528 1.87.528.66 0 1.188-.1173 1.584-.352.4106-.2347.7186-.506.924-.814.22-.3227.3666-.6087.44-.858h2.178c-.1907.7187-.506 1.364-.946 1.936s-1.012 1.0267-1.716 1.364c-.6894.3227-1.5254.484-2.508.484z"
       id="path3" />
    <path
       d="m40.8815 20v-11.22h2.156v11.22zm7.458-7.194c0-.4987-.0807-.9387-.242-1.32-.1467-.3813-.3887-.6747-.726-.88-.3227-.2053-.7553-.308-1.298-.308-.4693 0-.8947.066-1.276.198-.3667.132-.682.3227-.946.572s-.4693.55-.616.902c-.132.3373-.198.7187-.198 1.144h-.748v-2.926h.792c.2933-.42534.7407-.82134 1.342-1.188.6013-.36667 1.386-.55 2.354-.55.704 0 1.3347.13933 1.892.418.5573.264 1.0047.67466 1.342 1.232.3373.5427.506 1.2467.506 2.112v7.788h-2.178z"
       id="path4" />
    <path
       d="m61.6079 16.216h-6.578l-1.298 3.784h-2.552l5.852-15.73h2.618l5.896 15.73h-2.64zm-5.874-2.046h5.17l-2.552-7.656h-.044z"
       id="path5" />
    <path
       d="m66.1336 20v-15.73h6.556c.9973 0 1.8846.16133 2.662.484.7773.308 1.386.814 1.826 1.518.4546.68933.682 1.584.682 2.684s-.2274 1.9947-.682 2.684c-.44.6893-1.0487 1.1953-1.826 1.518-.7774.308-1.6647.462-2.662.462h-4.136v6.38zm2.42-8.47h4.026c.616 0 1.122-.088 1.518-.264.4106-.1907.7186-.4767.924-.858.2053-.3813.308-.86534.308-1.452 0-.89467-.2274-1.54734-.682-1.958-.4547-.42533-1.144-.638-2.068-.638h-4.026z"
       id="path6" />
    <path
       d="m79.5561 4.27h2.42v15.73h-2.42z"
       id="path7" />
  </g>
  <g
     id="vue-part">
    <rect
       x="89.784081"
       y="1.0614825"
       width="44.405399"
       height="23.554438"
       rx="3.0624413"
       fill="none"
       stroke="#42b883"
       stroke-width="1.56816"
       id="rect7"
       style="fill:none;fill-opacity:1" />
    <path
       d="M 98.274376,19.13886 93.737267,7.2121019 h 2.133789 l 2.560546,7.1425781 q 0.415528,1.156738 0.763672,2.40332 0.269532,-0.943359 0.752442,-2.268554 l 2.650394,-7.2773441 h 2.07763 L 100.16109,19.13886 Z m 16.003414,0 v -1.751953 q -1.39257,2.021484 -3.78466,2.021484 -1.05567,0 -1.97657,-0.404297 -0.90966,-0.404297 -1.35888,-1.010742 -0.43799,-0.617676 -0.61768,-1.504883 -0.12353,-0.595215 -0.12353,-1.886719 V 7.2121019 h 2.02148 v 6.6147461 q 0,1.583496 0.12354,2.133789 0.19091,0.797363 0.80859,1.257813 0.61767,0.449218 1.52734,0.449218 0.90967,0 1.70703,-0.460449 0.79737,-0.47168 1.12305,-1.269043 0.33691,-0.808594 0.33691,-2.335937 V 7.2121019 h 2.02149 V 19.13886 Z m 13.13965,-3.840821 2.08887,0.258301 q -0.49414,1.830567 -1.83057,2.841309 -1.33642,1.010742 -3.41406,1.010742 -2.6167,0 -4.15527,-1.605957 -1.52735,-1.617188 -1.52735,-4.525879 0,-3.009766 1.54981,-4.6718749 1.5498,-1.6621094 4.02051,-1.6621094 2.39209,0 3.9082,1.628418 1.51611,1.6284183 1.51611,4.5820313 0,0.179687 -0.0112,0.539062 h -8.89453 q 0.11231,1.965332 1.11182,3.009766 0.99951,1.044434 2.49316,1.044434 1.11182,0 1.89795,-0.583985 0.78613,-0.583984 1.24658,-1.864258 z m -6.6372,-3.268066 h 6.65966 q -0.13476,-1.504883 -0.76367,-2.2573242 -0.96582,-1.1679687 -2.50439,-1.1679687 -1.39258,0 -2.34717,0.9321289 -0.94336,0.932129 -1.04443,2.493164 z"
       id="text7"
       style="font-size:23px;font-family:Arial, sans-serif;dominant-baseline:middle;text-anchor:middle;fill:#42b883"
       aria-label="vue" />
  </g>
</svg>
